<mxfile host="app.diagrams.net" modified="2024-04-06T07:56:56.073Z" agent="Mozilla/5.0 (Macintosh; Intel Mac OS X 10_15_7) AppleWebKit/537.36 (KHTML, like Gecko) Chrome/123.0.0.0 Safari/537.36" version="24.0.5" etag="rDDLdTpQcAJkerMhaDUV" type="github">
  <diagram name="Page-1" id="0tkdvbZ83HBDeswL9zgf">
    <mxGraphModel>
      <root>
        <mxCell id="0" />
        <mxCell id="1" parent="0" />
      </root>
    </mxGraphModel>
  </diagram>
</mxfile>
